<?xml version="1.0" standalone="no"?>
<svg viewBox="0 0 200 200" xmlns="http://www.w3.org/2000/svg">
  <path fill="#4000D3" d="M49.8,-73.1C60.9,-60.5,63.7,-41.1,66.4,-23.7C69.2,-6.4,71.8,8.9,63.5,16.4C55.2,23.9,36.1,23.6,23.7,36C11.3,48.4,5.7,73.5,-6,81.7C-17.6,89.9,-35.3,81.4,-41.9,67.1C-48.6,52.9,-44.2,32.9,-47.3,16.9C-50.3,0.9,-60.8,-11.1,-63.5,-26.1C-66.2,-41.2,-61.2,-59.2,-49.3,-71.6C-37.4,-83.9,-18.7,-90.4,0.3,-90.9C19.4,-91.3,38.7,-85.6,49.8,-73.1Z" transform="translate(100 100)" />
</svg>
